<?xml version="1.0" encoding="utf-8"?>
<!-- Generator: Adobe Illustrator 18.0.0, SVG Export Plug-In . SVG Version: 6.00 Build 0)  -->
<!DOCTYPE svg PUBLIC "-//W3C//DTD SVG 1.1//EN" "http://www.w3.org/Graphics/SVG/1.1/DTD/svg11.dtd">
<svg version="1.1" id="Layer_1" xmlns="http://www.w3.org/2000/svg" xmlns:xlink="http://www.w3.org/1999/xlink" x="0px" y="0px"
	 width="41.6px" height="61.9px" viewBox="0 0 41.6 61.9" enable-background="new 0 0 41.6 61.9" xml:space="preserve">
<linearGradient id="SVGID_1_" gradientUnits="userSpaceOnUse" x1="33.1946" y1="74.6602" x2="6.5636" y2="26.6165">
	<stop  offset="0" style="stop-color:#FFDE00"/>
	<stop  offset="0.18" style="stop-color:#FFD600"/>
	<stop  offset="0.55" style="stop-color:#FFCC02"/>
	<stop  offset="0.84" style="stop-color:#966901"/>
	<stop  offset="1" style="stop-color:#300A00"/>
</linearGradient>
<path fill-rule="evenodd" clip-rule="evenodd" fill="url(#SVGID_1_)" d="M5.3,35.4L0,47.2c0,13.4,26.2,13.5,29.5,13.5l0,0
	c3.4,0,12,1.3,12,1.3C39.2,39.2,20.1,29,20.1,29L5.3,35.4z"/>
<linearGradient id="SVGID_2_" gradientUnits="userSpaceOnUse" x1="56.0953" y1="24.7895" x2="-6.8848" y2="23.6901">
	<stop  offset="0" style="stop-color:#FFDE00"/>
	<stop  offset="0.63" style="stop-color:#FFCC02"/>
	<stop  offset="1" style="stop-color:#B26910"/>
</linearGradient>
<path fill-rule="evenodd" clip-rule="evenodd" fill="url(#SVGID_2_)" d="M0.1,15.2v33.2c0,0,2-4.5,7.5-7.3l0,0
	c8.9-4.4,31.6-15.2,34-41c0,0-9.1,1.6-13.9,2.4l0,0C23,3.1,0.2,3.4,0.1,15.2z"/>
</svg>
